<?xml version="1.0" encoding="UTF-8"?>
<!-- Generated by Pixelmator Pro 3.7.1 -->
<svg width="47" height="48" viewBox="0 0 47 48" xmlns="http://www.w3.org/2000/svg">
    <path id="Shape-copy" fill="none" stroke="#8e8d8d" stroke-linecap="round" stroke-linejoin="round" d="M 22.310776 26.246449 C 21.549755 26.678989 19.332151 27.960762 16.891788 29.37389 C 12.640472 31.835676 12.439003 31.943336 12.07822 31.946112 C 11.808032 31.948193 11.644945 31.906654 11.50081 31.799042 C 11.390332 31.716557 11.232454 31.558678 11.149971 31.4482 C 11.046694 31.309874 11 31.137417 11 30.894308 C 11 30.65202 11.047208 30.476868 11.1505 30.335922 C 11.233274 30.222971 11.478765 30.013254 11.696035 29.869884 C 11.913305 29.726513 14.128648 28.435356 16.61902 27.000645 C 19.10939 25.565931 21.146967 24.372187 21.146967 24.347878 C 21.146967 24.32357 19.10939 23.129824 16.61902 21.695112 C 14.128648 20.260401 11.913305 18.969242 11.696035 18.825872 C 11.478765 18.682501 11.233274 18.472784 11.1505 18.359833 C 11.047208 18.218887 11 18.043736 11 17.801447 C 11 17.55834 11.046694 17.385883 11.149971 17.247557 C 11.232454 17.137077 11.390332 16.979198 11.50081 16.896715 C 11.645073 16.789007 11.807793 16.747622 12.07822 16.749855 C 12.438854 16.752831 12.642218 16.861507 16.891788 19.32213 C 19.332151 20.735172 21.549755 22.01685 21.819794 22.170301 L 22.310776 22.449306 L 22.310776 16.740156 C 22.310776 11.161831 22.314133 11.024429 22.457233 10.743931 C 22.551498 10.559155 22.705988 10.404667 22.890762 10.310398 C 23.145882 10.180248 23.318565 10.163944 24.442019 10.163944 C 25.462866 10.163944 25.814339 10.191605 26.268021 10.307632 C 26.577023 10.386665 27.032326 10.557407 27.279806 10.687061 C 27.548594 10.827881 27.950407 11.14344 28.277752 11.470783 C 28.605093 11.798126 28.92065 12.19994 29.06147 12.468727 C 29.191126 12.716206 29.361868 13.171509 29.440899 13.480511 C 29.519928 13.789516 29.584589 14.26099 29.584589 14.528233 C 29.584589 14.795475 29.519928 15.266945 29.440899 15.575951 C 29.361868 15.884953 29.191126 16.340256 29.06147 16.587736 C 28.92065 16.856525 28.605093 17.258337 28.277752 17.585682 C 27.950407 17.913023 27.548594 18.228582 27.279806 18.369402 C 27.032326 18.499056 26.577023 18.669798 26.268021 18.748831 C 25.929029 18.835527 25.465591 18.892519 25.099558 18.892519 L 24.49292 18.892519 L 24.49292 20.67767 C 24.49292 22.46282 24.49292 22.46282 24.802057 22.282318 C 24.972082 22.183044 27.189688 20.898233 29.730064 19.427187 C 34.159069 16.862501 34.364414 16.752436 34.725479 16.749651 C 34.995674 16.747566 35.158749 16.789101 35.302887 16.896715 C 35.413364 16.979198 35.571243 17.137077 35.653725 17.247557 C 35.757004 17.385883 35.803696 17.55834 35.803696 17.801447 C 35.803696 18.043736 35.756489 18.218887 35.653198 18.359833 C 35.570419 18.472784 35.324928 18.682644 35.107662 18.826189 C 34.890388 18.969736 32.675049 20.261671 30.184679 21.697157 C 27.694307 23.132643 25.656731 24.325541 25.656731 24.348038 C 25.656731 24.370537 27.808868 25.628876 30.439262 27.144342 C 33.069656 28.659809 35.327553 29.998409 35.456821 30.119011 C 35.586086 30.239613 35.728443 30.449158 35.773163 30.584667 C 35.817886 30.720181 35.833252 30.944181 35.807316 31.082451 C 35.781376 31.220718 35.661934 31.445711 35.541893 31.582436 C 35.421844 31.719158 35.207161 31.869461 35.064804 31.916439 C 34.922455 31.963421 34.703148 31.985094 34.577461 31.964603 C 34.451771 31.944111 32.139515 30.651302 29.439112 29.091696 L 24.529289 26.256044 L 24.514542 31.939314 C 24.499794 37.622581 24.499794 37.622581 24.338097 37.936764 C 24.232115 38.142689 24.081553 38.299332 23.901131 38.391376 C 23.749729 38.468616 23.518175 38.531643 23.386562 38.531441 C 23.254948 38.531235 23.019375 38.453651 22.863064 38.359032 C 22.706751 38.264416 22.519913 38.076374 22.447868 37.941162 C 22.324974 37.710518 22.316687 37.341457 22.313826 31.970886 L 22.310776 26.246449 Z M 24.49292 12.328293 L 24.49292 16.72817 L 25.13526 16.697458 C 25.648008 16.672945 25.860415 16.62623 26.188089 16.465914 C 26.413858 16.355455 26.71316 16.131218 26.853203 15.967609 C 26.993244 15.804005 27.165932 15.519588 27.236952 15.335587 C 27.31307 15.138367 27.366076 14.806942 27.366076 14.528233 C 27.366076 14.249519 27.31307 13.918095 27.236952 13.720879 C 27.165932 13.536873 26.993244 13.25246 26.853203 13.088852 C 26.71316 12.925243 26.413858 12.701008 26.188089 12.590549 C 25.860415 12.430233 25.648008 12.383518 25.13526 12.359005 L 24.49292 12.328293 Z"/>
</svg>
